<?xml version="1.0" encoding="UTF-8" standalone="no"?>
<!-- Created with Inkscape (http://www.inkscape.org/) -->

<svg
   width="50"
   height="50"
   viewBox="0 0 50 50"
   version="1.1"
   id="svg1098"
   sodipodi:docname="email-address.svg"
   inkscape:version="1.1.2 (0a00cf5339, 2022-02-04)"
   xmlns:inkscape="http://www.inkscape.org/namespaces/inkscape"
   xmlns:sodipodi="http://sodipodi.sourceforge.net/DTD/sodipodi-0.dtd"
   xmlns="http://www.w3.org/2000/svg"
   xmlns:svg="http://www.w3.org/2000/svg">
  <sodipodi:namedview
     id="namedview9"
     pagecolor="#ffffff"
     bordercolor="#666666"
     borderopacity="1.0"
     inkscape:pageshadow="2"
     inkscape:pageopacity="0.0"
     inkscape:pagecheckerboard="0"
     showgrid="false"
     inkscape:zoom="7.27"
     inkscape:cx="38.170564"
     inkscape:cy="50.962861"
     inkscape:window-width="1920"
     inkscape:window-height="1029"
     inkscape:window-x="0"
     inkscape:window-y="26"
     inkscape:window-maximized="1"
     inkscape:current-layer="svg1098" />
  <defs
     id="defs1095" />
  <rect
     style="fill:#ffffff;fill-opacity:1;stroke:none;stroke-width:3.49188"
     id="rect5289-7-4-4-7"
     width="50"
     height="50"
     x="-0.00051834545"
     y="-4.103546e-06" />
  <g
     aria-label="@"
     style="font-style:normal;font-weight:normal;font-size:2.76152px;line-height:1.25;font-family:sans-serif;letter-spacing:0px;word-spacing:0px;fill:#040303;fill-opacity:1;stroke:none;stroke-width:0.0690379"
     id="text1226"
     transform="matrix(13.098842,0,0,13.098842,2030.0434,-1004.9495)">
    <path
       d="m -153.42044,78.663721 q 0,0.19282 0.0957,0.303389 0.0957,0.10922 0.26294,0.10922 0.16585,0 0.26024,-0.110568 0.0957,-0.110569 0.0957,-0.302041 0,-0.188776 -0.0971,-0.299344 -0.0971,-0.111917 -0.26159,-0.111917 -0.16315,0 -0.26024,0.110568 -0.0957,0.110569 -0.0957,0.300693 z m 0.73487,0.40317 q -0.0809,0.103827 -0.18608,0.153718 -0.10382,0.04854 -0.24271,0.04854 -0.23192,0 -0.37755,-0.167201 -0.14428,-0.16855 -0.14428,-0.438229 0,-0.26968 0.14563,-0.438229 0.14563,-0.16855 0.3762,-0.16855 0.13889,0 0.24406,0.05124 0.10518,0.04989 0.18473,0.152369 v -0.17664 h 0.19282 v 0.99242 q 0.19687,-0.02966 0.30744,-0.179337 0.11192,-0.15102 0.11192,-0.389686 0,-0.144279 -0.0431,-0.271028 -0.0418,-0.126749 -0.1281,-0.234621 -0.14023,-0.17664 -0.34249,-0.26968 -0.20092,-0.09439 -0.43823,-0.09439 -0.16586,0 -0.31822,0.0445 -0.15237,0.04315 -0.28182,0.129446 -0.2117,0.137536 -0.33171,0.36137 -0.11865,0.222486 -0.11865,0.482726 0,0.214395 0.0769,0.401823 0.0782,0.187427 0.22519,0.330357 0.14158,0.140233 0.32766,0.213046 0.18608,0.07416 0.39777,0.07416 0.17395,0 0.34115,-0.05933 0.16855,-0.05798 0.30878,-0.167201 l 0.12136,0.149672 q -0.16855,0.130794 -0.36812,0.199562 -0.19821,0.07012 -0.40317,0.07012 -0.24945,0 -0.47059,-0.08899 -0.22113,-0.08765 -0.39373,-0.256196 -0.17259,-0.168549 -0.26294,-0.389686 -0.0903,-0.222486 -0.0903,-0.477333 0,-0.245408 0.0917,-0.467893 0.0917,-0.222486 0.26159,-0.391036 0.17395,-0.171246 0.40182,-0.261589 0.22788,-0.09169 0.48273,-0.09169 0.28586,0 0.52992,0.117311 0.24541,0.117311 0.41126,0.333054 0.10113,0.132143 0.15372,0.287209 0.0539,0.155065 0.0539,0.320918 0,0.354628 -0.21439,0.559585 -0.2144,0.204956 -0.59195,0.213046 z"
       style="fill:#040303;fill-opacity:1;stroke-width:0.0690379"
       id="path1261"
       inkscape:connector-curvature="0" />
  </g>
</svg>
